<svg xmlns="http://www.w3.org/2000/svg" xml:space="preserve" viewBox="0 0 1160 1160"><path fill="#FFF" d="M0 0h1160v1160H0z"/><path d="M400 80h40v40h-40zm160 0h40v40h-40zm80 0h40v40h-40zm-240 40h40v40h-40zm40 0h40v40h-40zm160 0h40v40h-40zm120 0h40v40h-40zm-320 40h40v40h-40zm40 0h40v40h-40zm40 0h40v40h-40zm120 0h40v40h-40zm120 0h40v40h-40zm-240 40h40v40h-40zm80 0h40v40h-40zm40 0h40v40h-40zm80 0h40v40h-40zm40 0h40v40h-40zm-320 40h40v40h-40zm40 0h40v40h-40zm120 0h40v40h-40zm80 0h40v40h-40zm80 0h40v40h-40zm-240 40h40v40h-40zm80 0h40v40h-40zm80 0h40v40h-40zm-240 40h40v40h-40zm80 0h40v40h-40zm80 0h40v40h-40zm80 0h40v40h-40zm80 0h40v40h-40zm-240 40h40v40h-40zm80 0h40v40h-40zm40 0h40v40h-40zm80 0h40v40h-40zM80 400h40v40H80zm120 0h40v40h-40zm40 0h40v40h-40zm40 0h40v40h-40zm40 0h40v40h-40zm40 0h40v40h-40zm40 0h40v40h-40zm40 0h40v40h-40zm80 0h40v40h-40zm120 0h40v40h-40zm40 0h40v40h-40zm40 0h40v40h-40zm40 0h40v40h-40zm120 0h40v40h-40zm80 0h40v40h-40zm40 0h40v40h-40zm40 0h40v40h-40zm-920 40h40v40h-40zm40 0h40v40h-40zm40 0h40v40h-40zm80 0h40v40h-40zm200 0h40v40h-40zm40 0h40v40h-40zm160 0h40v40h-40zm80 0h40v40h-40zm80 0h40v40h-40zm40 0h40v40h-40zm40 0h40v40h-40zm40 0h40v40h-40zm40 0h40v40h-40zM80 480h40v40H80zm80 0h40v40h-40zm80 0h40v40h-40zm80 0h40v40h-40zm40 0h40v40h-40zm40 0h40v40h-40zm40 0h40v40h-40zm120 0h40v40h-40zm40 0h40v40h-40zm40 0h40v40h-40zm40 0h40v40h-40zm40 0h40v40h-40zm40 0h40v40h-40zm40 0h40v40h-40zm40 0h40v40h-40zm80 0h40v40h-40zm120 0h40v40h-40zM80 520h40v40H80zm320 0h40v40h-40zm40 0h40v40h-40zm80 0h40v40h-40zm40 0h40v40h-40zm200 0h40v40h-40zm160 0h40v40h-40zm40 0h40v40h-40zm40 0h40v40h-40zm40 0h40v40h-40zM80 560h40v40H80zm40 0h40v40h-40zm120 0h40v40h-40zm80 0h40v40h-40zm120 0h40v40h-40zm80 0h40v40h-40zm40 0h40v40h-40zm80 0h40v40h-40zm40 0h40v40h-40zm120 0h40v40h-40zm40 0h40v40h-40zm200 0h40v40h-40zM80 600h40v40H80zm80 0h40v40h-40zm120 0h40v40h-40zm80 0h40v40h-40zm40 0h40v40h-40zm40 0h40v40h-40zm200 0h40v40h-40zm40 0h40v40h-40zm40 0h40v40h-40zm160 0h40v40h-40zm120 0h40v40h-40zM80 640h40v40H80zm40 0h40v40h-40zm40 0h40v40h-40zm160 0h40v40h-40zm120 0h40v40h-40zm40 0h40v40h-40zm40 0h40v40h-40zm40 0h40v40h-40zm80 0h40v40h-40zm40 0h40v40h-40zm40 0h40v40h-40zm80 0h40v40h-40zm80 0h40v40h-40zm40 0h40v40h-40zm40 0h40v40h-40zm40 0h40v40h-40zm40 0h40v40h-40zM80 680h40v40H80zm160 0h40v40h-40zm40 0h40v40h-40zm120 0h40v40h-40zm80 0h40v40h-40zm40 0h40v40h-40zm120 0h40v40h-40zm40 0h40v40h-40zm40 0h40v40h-40zm40 0h40v40h-40zm40 0h40v40h-40zm40 0h40v40h-40zm80 0h40v40h-40zm40 0h40v40h-40zm80 0h40v40h-40zM80 720h40v40H80zm200 0h40v40h-40zm40 0h40v40h-40zm120 0h40v40h-40zm120 0h40v40h-40zm40 0h40v40h-40zm80 0h40v40h-40zm40 0h40v40h-40zm40 0h40v40h-40zm40 0h40v40h-40zm40 0h40v40h-40zm40 0h40v40h-40zm80 0h40v40h-40zm40 0h40v40h-40zm-600 40h40v40h-40zm40 0h40v40h-40zm40 0h40v40h-40zm40 0h40v40h-40zm40 0h40v40h-40zm160 0h40v40h-40zm160 0h40v40h-40zm80 0h40v40h-40zm40 0h40v40h-40zm-600 40h40v40h-40zm40 0h40v40h-40zm80 0h40v40h-40zm120 0h40v40h-40zm80 0h40v40h-40zm80 0h40v40h-40zm80 0h40v40h-40zm160 0h40v40h-40zm-640 40h40v40h-40zm120 0h40v40h-40zm80 0h40v40h-40zm80 0h40v40h-40zm40 0h40v40h-40zm160 0h40v40h-40zm120 0h40v40h-40zm40 0h40v40h-40zm-640 40h40v40h-40zm120 0h40v40h-40zm40 0h40v40h-40zm80 0h40v40h-40zm40 0h40v40h-40zm40 0h40v40h-40zm40 0h40v40h-40zm40 0h40v40h-40zm40 0h40v40h-40zm40 0h40v40h-40zm-480 40h40v40h-40zm120 0h40v40h-40zm40 0h40v40h-40zm40 0h40v40h-40zm40 0h40v40h-40zm40 0h40v40h-40zm80 0h40v40h-40zm40 0h40v40h-40zm200 0h40v40h-40zm40 0h40v40h-40zm-600 40h40v40h-40zm80 0h40v40h-40zm80 0h40v40h-40zm160 0h40v40h-40zm120 0h40v40h-40zm40 0h40v40h-40zm40 0h40v40h-40zm40 0h40v40h-40zm40 0h40v40h-40zm-520 40h40v40h-40zm120 0h40v40h-40zm120 0h40v40h-40zm80 0h40v40h-40zm40 0h40v40h-40zm80 0h40v40h-40zm40 0h40v40h-40zm40 0h40v40h-40zm-640 40h40v40h-40zm80 0h40v40h-40zm80 0h40v40h-40zm160 0h40v40h-40zm80 0h40v40h-40zm120 0h40v40h-40zm120 0h40v40h-40z"/><path fill="none" d="M122 122h196v196H122z"/><path d="M318 80H80v280h280V80h-42zm0 238H122V122h196v196z"/><path fill="none" d="M842 122h196v196H842z"/><path d="M1038 80H800v280h280V80h-42zm0 238H842V122h196v196z"/><path fill="none" d="M122 842h196v196H122z"/><path d="M318 800H80v280h280V800h-42zm0 238H122V842h196v196zM160 160h120v120H160zm720 0h120v120H880z"/><path d="M160 880h120v120H160z"/></svg>