<svg xmlns="http://www.w3.org/2000/svg" xml:space="preserve" viewBox="0 0 1155 1155"><path fill="#FFF" d="M0 0h1155v1155H0z"/><path d="M385 70h35v35h-35zm35 0h35v35h-35zm175 0h35v35h-35zm35 0h35v35h-35zm35 0h35v35h-35zm35 0h35v35h-35zm35 0h35v35h-35zm-175 35h35v35h-35zm35 0h35v35h-35zm35 0h35v35h-35zm70 0h35v35h-35zm70 0h35v35h-35zm-385 35h35v35h-35zm105 0h35v35h-35zm105 0h35v35h-35zm35 0h35v35h-35zm35 0h35v35h-35zm70 0h35v35h-35zm-350 35h35v35h-35zm70 0h35v35h-35zm35 0h35v35h-35zm105 0h35v35h-35zm35 0h35v35h-35zm70 0h35v35h-35zm35 0h35v35h-35zm-350 35h35v35h-35zm70 0h35v35h-35zm105 0h35v35h-35zm35 0h35v35h-35zm70 0h35v35h-35zm35 0h35v35h-35zm-350 35h35v35h-35zm70 0h35v35h-35zm70 0h35v35h-35zm105 0h35v35h-35zm105 0h35v35h-35zm35 0h35v35h-35zm35 0h35v35h-35zm-420 35h35v35h-35zm70 0h35v35h-35zm70 0h35v35h-35zm70 0h35v35h-35zm70 0h35v35h-35zm70 0h35v35h-35zm70 0h35v35h-35zm-385 35h35v35h-35zm70 0h35v35h-35zm105 0h35v35h-35zm70 0h35v35h-35zm35 0h35v35h-35zm35 0h35v35h-35zm35 0h35v35h-35zm35 0h35v35h-35zM70 350h35v35H70zm105 0h35v35h-35zm70 0h35v35h-35zm35 0h35v35h-35zm70 0h35v35h-35zm70 0h35v35h-35zm35 0h35v35h-35zm245 0h35v35h-35zm35 0h35v35h-35zm70 0h35v35h-35zm70 0h35v35h-35zM70 385h35v35H70zm35 0h35v35h-35zm105 0h35v35h-35zm140 0h35v35h-35zm35 0h35v35h-35zm70 0h35v35h-35zm35 0h35v35h-35zm140 0h35v35h-35zm175 0h35v35h-35zm35 0h35v35h-35zm105 0h35v35h-35zm105 0h35v35h-35zm-875 35h35v35h-35zm70 0h35v35h-35zm35 0h35v35h-35zm35 0h35v35h-35zm105 0h35v35h-35zm35 0h35v35h-35zm35 0h35v35h-35zm140 0h35v35h-35zm35 0h35v35h-35zm70 0h35v35h-35zm35 0h35v35h-35zm35 0h35v35h-35zm70 0h35v35h-35zm35 0h35v35h-35zm35 0h35v35h-35zm35 0h35v35h-35zm35 0h35v35h-35zM70 455h35v35H70zm175 0h35v35h-35zm70 0h35v35h-35zm70 0h35v35h-35zm35 0h35v35h-35zm35 0h35v35h-35zm105 0h35v35h-35zm35 0h35v35h-35zm35 0h35v35h-35zm70 0h35v35h-35zm70 0h35v35h-35zm70 0h35v35h-35zm70 0h35v35h-35zm70 0h35v35h-35zm35 0h35v35h-35zm-875 35h35v35h-35zm140 0h35v35h-35zm35 0h35v35h-35zm70 0h35v35h-35zm35 0h35v35h-35zm70 0h35v35h-35zm140 0h35v35h-35zm35 0h35v35h-35zm140 0h35v35h-35zm35 0h35v35h-35zm105 0h35v35h-35zm70 0h35v35h-35zm35 0h35v35h-35zM70 525h35v35H70zm35 0h35v35h-35zm35 0h35v35h-35zm175 0h35v35h-35zm70 0h35v35h-35zm35 0h35v35h-35zm35 0h35v35h-35zm210 0h35v35h-35zm35 0h35v35h-35zm35 0h35v35h-35zm35 0h35v35h-35zm35 0h35v35h-35zm-595 35h35v35h-35zm35 0h35v35h-35zm35 0h35v35h-35zm35 0h35v35h-35zm70 0h35v35h-35zm70 0h35v35h-35zm35 0h35v35h-35zm140 0h35v35h-35zm35 0h35v35h-35zm105 0h35v35h-35zm70 0h35v35h-35zm70 0h35v35h-35zm35 0h35v35h-35zm35 0h35v35h-35zm35 0h35v35h-35zm35 0h35v35h-35zM70 595h35v35H70zm70 0h35v35h-35zm35 0h35v35h-35zm35 0h35v35h-35zm35 0h35v35h-35zm105 0h35v35h-35zm105 0h35v35h-35zm70 0h35v35h-35zm35 0h35v35h-35zm35 0h35v35h-35zm35 0h35v35h-35zm35 0h35v35h-35zm70 0h35v35h-35zm35 0h35v35h-35zm35 0h35v35h-35zm35 0h35v35h-35zm35 0h35v35h-35zm70 0h35v35h-35zm70 0h35v35h-35zm-875 35h35v35h-35zm70 0h35v35h-35zm70 0h35v35h-35zm35 0h35v35h-35zm70 0h35v35h-35zm35 0h35v35h-35zm70 0h35v35h-35zm35 0h35v35h-35zm35 0h35v35h-35zm70 0h35v35h-35zm35 0h35v35h-35zm70 0h35v35h-35zm35 0h35v35h-35zm35 0h35v35h-35zm210 0h35v35h-35zm-840 35h35v35h-35zm35 0h35v35h-35zm35 0h35v35h-35zm70 0h35v35h-35zm35 0h35v35h-35zm35 0h35v35h-35zm35 0h35v35h-35zm70 0h35v35h-35zm140 0h35v35h-35zm210 0h35v35h-35zm35 0h35v35h-35zm70 0h35v35h-35zm105 0h35v35h-35zM70 700h35v35H70zm140 0h35v35h-35zm35 0h35v35h-35zm35 0h35v35h-35zm35 0h35v35h-35zm70 0h35v35h-35zm35 0h35v35h-35zm35 0h35v35h-35zm70 0h35v35h-35zm245 0h35v35h-35zm35 0h35v35h-35zm35 0h35v35h-35zm175 0h35v35h-35zm35 0h35v35h-35zm-910 35h35v35h-35zm70 0h35v35h-35zm105 0h35v35h-35zm35 0h35v35h-35zm35 0h35v35h-35zm105 0h35v35h-35zm35 0h35v35h-35zm70 0h35v35h-35zm70 0h35v35h-35zm35 0h35v35h-35zm70 0h35v35h-35zm70 0h35v35h-35zm35 0h35v35h-35zm140 0h35v35h-35zm35 0h35v35h-35zM70 770h35v35H70zm210 0h35v35h-35zm70 0h35v35h-35zm70 0h35v35h-35zm140 0h35v35h-35zm70 0h35v35h-35zm105 0h35v35h-35zm35 0h35v35h-35zm35 0h35v35h-35zm35 0h35v35h-35zm35 0h35v35h-35zm35 0h35v35h-35zm70 0h35v35h-35zm-630 35h35v35h-35zm105 0h35v35h-35zm35 0h35v35h-35zm35 0h35v35h-35zm105 0h35v35h-35zm35 0h35v35h-35zm70 0h35v35h-35zm35 0h35v35h-35zm140 0h35v35h-35zm70 0h35v35h-35zm35 0h35v35h-35zm35 0h35v35h-35zm-630 35h35v35h-35zm35 0h35v35h-35zm70 0h35v35h-35zm35 0h35v35h-35zm105 0h35v35h-35zm35 0h35v35h-35zm70 0h35v35h-35zm70 0h35v35h-35zm70 0h35v35h-35zm105 0h35v35h-35zm-665 35h35v35h-35zm140 0h35v35h-35zm35 0h35v35h-35zm70 0h35v35h-35zm105 0h35v35h-35zm70 0h35v35h-35zm140 0h35v35h-35zm35 0h35v35h-35zm35 0h35v35h-35zm35 0h35v35h-35zm35 0h35v35h-35zm-595 35h35v35h-35zm105 0h35v35h-35zm35 0h35v35h-35zm70 0h35v35h-35zm105 0h35v35h-35zm35 0h35v35h-35zm35 0h35v35h-35zm35 0h35v35h-35zm35 0h35v35h-35zm105 0h35v35h-35zm35 0h35v35h-35zm-700 35h35v35h-35zm70 0h35v35h-35zm140 0h35v35h-35zm175 0h35v35h-35zm35 0h35v35h-35zm70 0h35v35h-35zm70 0h35v35h-35zm35 0h35v35h-35zm35 0h35v35h-35zm35 0h35v35h-35zm-455 35h35v35h-35zm105 0h35v35h-35zm35 0h35v35h-35zm70 0h35v35h-35zm140 0h35v35h-35zm35 0h35v35h-35zm35 0h35v35h-35zm70 0h35v35h-35zm-665 35h35v35h-35zm35 0h35v35h-35zm35 0h35v35h-35zm35 0h35v35h-35zm70 0h35v35h-35zm35 0h35v35h-35zm35 0h35v35h-35zm35 0h35v35h-35zm70 0h35v35h-35zm35 0h35v35h-35zm35 0h35v35h-35zm105 0h35v35h-35zm105 0h35v35h-35zm-665 35h35v35h-35zm35 0h35v35h-35zm35 0h35v35h-35zm245 0h35v35h-35zm105 0h35v35h-35zm35 0h35v35h-35zm35 0h35v35h-35zm70 0h35v35h-35zm35 0h35v35h-35zm70 0h35v35h-35z"/><path fill="none" d="M107 107h171v171H107z"/><path d="M278 70H70v245h245V70h-37zm0 208H107V107h171v171z"/><path fill="none" d="M877 107h171v171H877z"/><path d="M1048 70H840v245h245V70h-37zm0 208H877V107h171v171z"/><path fill="none" d="M107 877h171v171H107z"/><path d="M278 840H70v245h245V840h-37zm0 208H107V877h171v171zM140 140h105v105H140zm770 0h105v105H910z"/><path d="M140 910h105v105H140z"/></svg>